# 3ds Max Wavefront OBJ Exporter v0.97b - (c)2007 guruware
# File Created: 12.02.2018 22:49:45

#
# object Box002
#

v  -15.300000 -20.000000 -15.299999
v  15.299999 -20.000000 -15.300000
v  15.300000 -20.000000 15.299999
v  -15.299999 -20.000000 15.300000
v  15.300000 20.000000 -15.299999
v  -15.299999 20.000000 -15.300000
v  -15.300000 20.000000 15.299999
v  15.299999 20.000000 15.300000
v  15.300000 15.299999 20.000000
v  -15.299999 15.299999 20.000000
v  -15.300000 -15.299999 20.000000
v  15.299999 -15.300000 20.000000
v  20.000000 -15.300000 -15.300000
v  20.000000 15.299999 -15.299999
v  20.000000 15.299999 15.300000
v  20.000000 -15.299999 15.299999
v  -15.300000 15.299999 -20.000000
v  15.299999 15.299999 -20.000000
v  15.300000 -15.300000 -20.000000
v  -15.299999 -15.300000 -20.000000
v  -20.000000 -15.300000 15.300000
v  -20.000000 15.299999 15.299999
v  -20.000000 15.299999 -15.300000
v  -20.000000 -15.299999 -15.299999
v  -15.300000 -20.000000 -20.000000
v  15.299999 -20.000000 -20.000000
v  15.300000 -20.000000 20.000000
v  -15.299999 -20.000000 20.000000
v  15.300000 20.000000 -20.000000
v  -15.299999 20.000000 -20.000000
v  -15.300000 20.000000 20.000000
v  15.299999 20.000000 20.000000
v  20.000000 -15.300000 -20.000000
v  20.000000 15.299999 -20.000000
v  20.000000 15.299999 20.000000
v  20.000000 -15.300000 20.000000
v  -20.000000 -15.299999 20.000000
v  -20.000000 15.299999 20.000000
v  -20.000000 15.299999 -20.000000
v  -20.000000 -15.300000 -20.000000
v  20.000000 20.000000 -15.299999
v  20.000000 20.000000 15.300000
v  20.000000 -20.000000 15.299999
v  20.000000 -20.000000 -15.300000
v  -20.000000 20.000000 15.299999
v  -20.000000 20.000000 -15.300000
v  -20.000000 -20.000000 -15.299999
v  -20.000000 -20.000000 15.300000
v  20.707108 15.299999 -20.707108
v  20.577351 20.577351 -20.577351
v  20.707108 20.707108 -15.299999
v  21.000000 15.299999 -15.299999
v  21.000000 -15.300000 -15.300000
v  20.707108 -20.707108 -15.300000
v  20.577351 -20.577351 -20.577351
v  20.707108 -15.300000 -20.707108
v  20.707108 -15.300000 20.707108
v  20.577351 -20.577351 20.577351
v  20.707108 -20.707108 15.299999
v  21.000000 -15.299999 15.299999
v  21.000000 15.299999 15.300000
v  20.707108 20.707108 15.300000
v  20.577351 20.577351 20.577351
v  20.707108 15.299999 20.707108
v  -20.707108 15.299999 20.707108
v  -20.577351 20.577351 20.577351
v  -20.707108 20.707108 15.299999
v  -21.000000 15.299999 15.299999
v  -21.000000 -15.300000 15.300000
v  -20.707108 -20.707108 15.300000
v  -20.577351 -20.577351 20.577351
v  -20.707108 -15.299999 20.707108
v  -20.707108 -15.300000 -20.707108
v  -20.577351 -20.577351 -20.577351
v  -20.707108 -20.707108 -15.299999
v  -21.000000 -15.299999 -15.299999
v  -21.000000 15.299999 -15.300000
v  -20.707108 20.707108 -15.300000
v  -20.577351 20.577351 -20.577351
v  -20.707108 15.299999 -20.707108
v  15.299999 -20.707108 -20.707108
v  15.299999 -21.000000 -15.300000
v  -15.300000 -21.000000 -15.299999
v  -15.300000 -20.707108 -20.707108
v  -15.299999 -20.707108 20.707108
v  -15.299999 -21.000000 15.300000
v  15.300000 -21.000000 15.299999
v  15.300000 -20.707108 20.707108
v  -15.299999 20.707108 -20.707108
v  -15.299999 21.000000 -15.300000
v  15.300000 21.000000 -15.299999
v  15.300000 20.707108 -20.707108
v  15.299999 20.707108 20.707108
v  15.299999 21.000000 15.300000
v  -15.300000 21.000000 15.299999
v  -15.300000 20.707108 20.707108
v  -15.299999 15.299999 21.000000
v  15.300000 15.299999 21.000000
v  15.299999 -15.300000 21.000000
v  -15.300000 -15.299999 21.000000
v  15.299999 15.299999 -21.000000
v  -15.300000 15.299999 -21.000000
v  -15.299999 -15.300000 -21.000000
v  15.300000 -15.300000 -21.000000
# 104 vertices

vn 0.000000 -1.000000 -0.000000
vn 0.000000 1.000000 -0.000000
vn 0.000000 0.000000 1.000000
vn 1.000000 0.000000 -0.000000
vn 0.000000 0.000000 -1.000000
vn -1.000000 0.000000 -0.000000
vn 0.998202 0.025873 -0.054071
vn 0.998400 0.039980 -0.039980
vn 0.998202 0.054071 -0.025873
vn 0.997079 -0.054010 -0.054010
vn 0.998411 -0.039848 -0.039848
vn 0.999365 -0.025191 -0.025191
vn 0.998202 -0.025873 0.054071
vn 0.998400 -0.039980 0.039980
vn 0.998202 -0.054071 0.025873
vn 0.997079 0.054010 0.054010
vn 0.998411 0.039848 0.039848
vn 0.999365 0.025191 0.025191
vn -0.998202 0.025873 0.054071
vn -0.998400 0.039980 0.039980
vn -0.998202 0.054071 0.025873
vn -0.997079 -0.054010 0.054010
vn -0.998411 -0.039848 0.039848
vn -0.999365 -0.025191 0.025191
vn -0.998202 -0.025873 -0.054071
vn -0.998400 -0.039980 -0.039980
vn -0.998202 -0.054071 -0.025873
vn -0.997079 0.054010 -0.054010
vn -0.998411 0.039848 -0.039848
vn -0.999365 0.025191 -0.025191
vn 0.025873 -0.998202 -0.054071
vn 0.039980 -0.998400 -0.039980
vn 0.054071 -0.998202 -0.025873
vn -0.054010 -0.997079 -0.054010
vn -0.039848 -0.998411 -0.039848
vn -0.025191 -0.999365 -0.025191
vn -0.025873 -0.998202 0.054071
vn -0.039980 -0.998400 0.039980
vn -0.054071 -0.998202 0.025873
vn 0.054010 -0.997079 0.054010
vn 0.039848 -0.998411 0.039848
vn 0.025191 -0.999365 0.025191
vn -0.025873 0.998202 -0.054071
vn -0.039980 0.998400 -0.039980
vn -0.054071 0.998202 -0.025873
vn 0.054010 0.997079 -0.054010
vn 0.039848 0.998411 -0.039848
vn 0.025191 0.999365 -0.025191
vn 0.025873 0.998202 0.054071
vn 0.039980 0.998400 0.039980
vn 0.054071 0.998202 0.025873
vn -0.054010 0.997079 0.054010
vn -0.039848 0.998411 0.039848
vn -0.025191 0.999365 0.025191
vn -0.025873 0.054071 0.998202
vn -0.039980 0.039980 0.998400
vn -0.054071 0.025873 0.998202
vn 0.054010 0.054010 0.997079
vn 0.039848 0.039848 0.998411
vn 0.025191 0.025191 0.999365
vn 0.025873 -0.054071 0.998202
vn 0.039980 -0.039980 0.998400
vn 0.054071 -0.025873 0.998202
vn -0.054010 -0.054010 0.997079
vn -0.039848 -0.039848 0.998411
vn -0.025191 -0.025191 0.999365
vn 0.025873 0.054071 -0.998202
vn 0.039980 0.039980 -0.998400
vn 0.054071 0.025873 -0.998202
vn -0.054010 0.054010 -0.997079
vn -0.039848 0.039848 -0.998411
vn -0.025191 0.025191 -0.999365
vn -0.025873 -0.054071 -0.998202
vn -0.039980 -0.039980 -0.998400
vn -0.054071 -0.025873 -0.998202
vn 0.054010 -0.054010 -0.997079
vn 0.039848 -0.039848 -0.998411
vn 0.025191 -0.025191 -0.999365
vn -1.000000 0.000000 0.000000
vn -0.000000 1.000000 0.000000
vn -1.000000 -0.000000 -0.000000
vn -1.000000 -0.000000 0.000000
vn 1.000000 0.000000 0.000000
vn -0.000000 1.000000 -0.000000
vn 1.000000 -0.000000 0.000000
vn 1.000000 -0.000000 -0.000000
# 86 vertex normals

vt 0.372978 0.372978 0.000000
vt 0.627022 0.372978 0.000000
vt 0.627022 0.627022 0.000000
vt 0.372978 0.627022 0.000000
vt 0.294064 0.959980 0.000000
vt 0.040020 0.959980 0.000000
vt 0.040020 0.705936 0.000000
vt 0.294064 0.705936 0.000000
vt 0.627022 0.294064 0.000000
vt 0.372978 0.294064 0.000000
vt 0.372978 0.040020 0.000000
vt 0.627022 0.040020 0.000000
vt 0.959980 0.040020 0.000000
vt 0.959980 0.294064 0.000000
vt 0.705936 0.294064 0.000000
vt 0.705936 0.040020 0.000000
vt 0.294064 0.627022 0.000000
vt 0.040020 0.627022 0.000000
vt 0.040020 0.372978 0.000000
vt 0.294064 0.372978 0.000000
vt 0.294064 0.040020 0.000000
vt 0.294064 0.294064 0.000000
vt 0.040020 0.294064 0.000000
vt 0.040020 0.040020 0.000000
vt 0.372978 0.333958 0.000000
vt 0.627022 0.333958 0.000000
vt 0.627022 0.666042 0.000000
vt 0.372978 0.666042 0.000000
vt 0.294064 0.999000 0.000000
vt 0.040020 0.999000 0.000000
vt 0.040020 0.666916 0.000000
vt 0.294064 0.666916 0.000000
vt 0.999000 0.040020 0.000000
vt 0.999000 0.294064 0.000000
vt 0.666916 0.294064 0.000000
vt 0.666916 0.040020 0.000000
vt 0.333084 0.040020 0.000000
vt 0.333084 0.294064 0.000000
vt 0.001000 0.294064 0.000000
vt 0.001000 0.040020 0.000000
vt 0.627022 0.333084 0.000000
vt 0.372978 0.333084 0.000000
vt 0.372978 0.001000 0.000000
vt 0.627022 0.001000 0.000000
vt 0.959980 0.333084 0.000000
vt 0.705936 0.333084 0.000000
vt 0.705936 0.001000 0.000000
vt 0.959980 0.001000 0.000000
vt 0.294064 0.666042 0.000000
vt 0.040020 0.666042 0.000000
vt 0.040020 0.333958 0.000000
vt 0.294064 0.333958 0.000000
vt 0.294064 0.333084 0.000000
vt 0.040020 0.333084 0.000000
vt 0.040020 0.001000 0.000000
vt 0.294064 0.001000 0.000000
vt 0.427044 0.861448 0.000000
vt 0.425967 0.905261 0.000000
vt 0.382154 0.906338 0.000000
vt 0.382154 0.861448 0.000000
vt 0.713554 0.630125 0.000000
vt 0.758445 0.630125 0.000000
vt 0.757367 0.673938 0.000000
vt 0.713554 0.675016 0.000000
vt 0.481168 0.812378 0.000000
vt 0.524981 0.813455 0.000000
vt 0.526058 0.857268 0.000000
vt 0.481168 0.857268 0.000000
vt 0.526058 0.808198 0.000000
vt 0.526058 0.763308 0.000000
vt 0.569871 0.764385 0.000000
vt 0.570948 0.808198 0.000000
vt 0.525184 0.763308 0.000000
vt 0.524107 0.807121 0.000000
vt 0.480294 0.808198 0.000000
vt 0.480294 0.763308 0.000000
vt 0.481168 0.903906 0.000000
vt 0.481168 0.859016 0.000000
vt 0.524981 0.860093 0.000000
vt 0.526058 0.903906 0.000000
vt 0.478546 0.715112 0.000000
vt 0.522359 0.716189 0.000000
vt 0.523436 0.760002 0.000000
vt 0.478546 0.760002 0.000000
vt 0.333958 0.904590 0.000000
vt 0.333958 0.859700 0.000000
vt 0.377771 0.860777 0.000000
vt 0.378848 0.904590 0.000000
vt 0.666042 0.372978 0.000000
vt 0.666042 0.627022 0.000000
vt 0.333958 0.627022 0.000000
vt 0.333958 0.372978 0.000000
vt 0.001000 0.959980 0.000000
vt 0.001000 0.705936 0.000000
vt 0.333084 0.705936 0.000000
vt 0.333084 0.959980 0.000000
vt 0.333958 0.294064 0.000000
vt 0.333958 0.040020 0.000000
vt 0.666042 0.040020 0.000000
vt 0.666042 0.294064 0.000000
vt 0.001000 0.627022 0.000000
vt 0.001000 0.372978 0.000000
vt 0.333084 0.372978 0.000000
vt 0.333084 0.627022 0.000000
vt 0.711806 0.630125 0.000000
vt 0.710729 0.673938 0.000000
vt 0.666916 0.675016 0.000000
vt 0.666916 0.630125 0.000000
vt 0.811504 0.333958 0.000000
vt 0.856394 0.333958 0.000000
vt 0.855317 0.377771 0.000000
vt 0.811504 0.378848 0.000000
vt 0.812568 0.525184 0.000000
vt 0.813645 0.481371 0.000000
vt 0.857458 0.480294 0.000000
vt 0.857458 0.525184 0.000000
vt 0.906528 0.475240 0.000000
vt 0.861638 0.475240 0.000000
vt 0.862715 0.431427 0.000000
vt 0.906528 0.430350 0.000000
vt 0.716860 0.625072 0.000000
vt 0.717937 0.581259 0.000000
vt 0.761750 0.580181 0.000000
vt 0.761750 0.625072 0.000000
vt 0.808198 0.427044 0.000000
vt 0.763308 0.427044 0.000000
vt 0.764385 0.383231 0.000000
vt 0.808198 0.382154 0.000000
vt 0.807514 0.530238 0.000000
vt 0.806437 0.574051 0.000000
vt 0.762624 0.575128 0.000000
vt 0.762624 0.530238 0.000000
vt 0.478546 0.666916 0.000000
vt 0.523436 0.666916 0.000000
vt 0.522359 0.710729 0.000000
vt 0.478546 0.711806 0.000000
vt 0.811694 0.525184 0.000000
vt 0.767881 0.524107 0.000000
vt 0.766804 0.480294 0.000000
vt 0.811694 0.480294 0.000000
vt 0.716860 0.530237 0.000000
vt 0.761750 0.530237 0.000000
vt 0.760673 0.574051 0.000000
vt 0.716860 0.575128 0.000000
vt 0.711806 0.676764 0.000000
vt 0.710729 0.720577 0.000000
vt 0.666916 0.721654 0.000000
vt 0.666916 0.676764 0.000000
vt 0.382154 0.952102 0.000000
vt 0.382154 0.907212 0.000000
vt 0.425967 0.908289 0.000000
vt 0.427044 0.952102 0.000000
vt 0.860764 0.475240 0.000000
vt 0.816951 0.474163 0.000000
vt 0.815874 0.430350 0.000000
vt 0.860764 0.430350 0.000000
vt 0.431224 0.862322 0.000000
vt 0.476114 0.862322 0.000000
vt 0.475037 0.906135 0.000000
vt 0.431224 0.907212 0.000000
vt 0.476114 0.908086 0.000000
vt 0.475037 0.951899 0.000000
vt 0.431224 0.952976 0.000000
vt 0.431224 0.908086 0.000000
vt 0.527806 0.857268 0.000000
vt 0.527806 0.812378 0.000000
vt 0.571619 0.813455 0.000000
vt 0.572696 0.857268 0.000000
vt 0.764182 0.438652 0.000000
vt 0.725162 0.438652 0.000000
vt 0.719291 0.432781 0.000000
vt 0.764182 0.430350 0.000000
vt 0.725162 0.477672 0.000000
vt 0.716860 0.477672 0.000000
vt 0.754132 0.381280 0.000000
vt 0.754132 0.342260 0.000000
vt 0.760002 0.336390 0.000000
vt 0.762434 0.381280 0.000000
vt 0.715112 0.342260 0.000000
vt 0.715112 0.333958 0.000000
vt 0.675218 0.333958 0.000000
vt 0.675218 0.372978 0.000000
vt 0.669348 0.378848 0.000000
vt 0.666916 0.333958 0.000000
vt 0.714238 0.372978 0.000000
vt 0.714238 0.381280 0.000000
vt 0.382154 0.802328 0.000000
vt 0.421174 0.802328 0.000000
vt 0.427044 0.808198 0.000000
vt 0.382154 0.810630 0.000000
vt 0.421174 0.763308 0.000000
vt 0.429476 0.763308 0.000000
vt 0.762434 0.390456 0.000000
vt 0.723414 0.390456 0.000000
vt 0.717544 0.384586 0.000000
vt 0.762434 0.382154 0.000000
vt 0.723414 0.429476 0.000000
vt 0.715112 0.429476 0.000000
vt 0.430350 0.705936 0.000000
vt 0.469370 0.705936 0.000000
vt 0.475240 0.711806 0.000000
vt 0.430350 0.714238 0.000000
vt 0.469370 0.666916 0.000000
vt 0.477672 0.666916 0.000000
vt 0.716860 0.519314 0.000000
vt 0.755880 0.519314 0.000000
vt 0.761750 0.525184 0.000000
vt 0.716860 0.527616 0.000000
vt 0.755880 0.480294 0.000000
vt 0.764182 0.480294 0.000000
vt 0.705936 0.429476 0.000000
vt 0.705936 0.390456 0.000000
vt 0.711806 0.384586 0.000000
vt 0.714238 0.429476 0.000000
vt 0.666916 0.390456 0.000000
vt 0.666916 0.382154 0.000000
vt 0.431224 0.802328 0.000000
vt 0.470244 0.802328 0.000000
vt 0.476114 0.808198 0.000000
vt 0.431224 0.810630 0.000000
vt 0.470244 0.763308 0.000000
vt 0.478546 0.763308 0.000000
vt 0.390456 0.715112 0.000000
vt 0.390456 0.754132 0.000000
vt 0.384586 0.760002 0.000000
vt 0.382154 0.715112 0.000000
vt 0.429476 0.754132 0.000000
vt 0.429476 0.762434 0.000000
vt 0.478546 0.820680 0.000000
vt 0.439526 0.820680 0.000000
vt 0.433655 0.814809 0.000000
vt 0.478546 0.812378 0.000000
vt 0.439526 0.859700 0.000000
vt 0.431224 0.859700 0.000000
vt 0.763308 0.372978 0.000000
vt 0.802328 0.372978 0.000000
vt 0.808198 0.378848 0.000000
vt 0.763308 0.381280 0.000000
vt 0.802328 0.333958 0.000000
vt 0.810630 0.333958 0.000000
vt 0.714238 0.538540 0.000000
vt 0.675218 0.538540 0.000000
vt 0.669348 0.532669 0.000000
vt 0.714238 0.530238 0.000000
vt 0.675218 0.577559 0.000000
vt 0.666916 0.577559 0.000000
vt 0.390456 0.666916 0.000000
vt 0.390456 0.705936 0.000000
vt 0.384586 0.711806 0.000000
vt 0.382154 0.666916 0.000000
vt 0.429476 0.705936 0.000000
vt 0.429476 0.714238 0.000000
vt 0.342260 0.666916 0.000000
vt 0.342260 0.705936 0.000000
vt 0.336390 0.711806 0.000000
vt 0.333958 0.666916 0.000000
vt 0.381280 0.705936 0.000000
vt 0.381280 0.714238 0.000000
vt 0.766804 0.469370 0.000000
vt 0.805824 0.469370 0.000000
vt 0.811694 0.475240 0.000000
vt 0.766804 0.477672 0.000000
vt 0.805824 0.430350 0.000000
vt 0.814126 0.430350 0.000000
vt 0.666916 0.519314 0.000000
vt 0.705936 0.519314 0.000000
vt 0.711806 0.525184 0.000000
vt 0.666916 0.527616 0.000000
vt 0.705936 0.480294 0.000000
vt 0.714238 0.480294 0.000000
vt 0.381280 0.819806 0.000000
vt 0.342260 0.819806 0.000000
vt 0.336390 0.813935 0.000000
vt 0.381280 0.811504 0.000000
vt 0.342260 0.858826 0.000000
vt 0.333958 0.858826 0.000000
vt 0.666916 0.469370 0.000000
vt 0.705936 0.469370 0.000000
vt 0.711806 0.475240 0.000000
vt 0.666916 0.477672 0.000000
vt 0.705936 0.430350 0.000000
vt 0.714238 0.430350 0.000000
vt 0.342260 0.763308 0.000000
vt 0.342260 0.802328 0.000000
vt 0.336390 0.808198 0.000000
vt 0.333958 0.763308 0.000000
vt 0.381280 0.802328 0.000000
vt 0.381280 0.810630 0.000000
vt 0.382154 0.851398 0.000000
vt 0.421174 0.851398 0.000000
vt 0.427044 0.857268 0.000000
vt 0.382154 0.859700 0.000000
vt 0.421174 0.812378 0.000000
vt 0.429476 0.812378 0.000000
vt 0.342260 0.715112 0.000000
vt 0.342260 0.754132 0.000000
vt 0.336390 0.760002 0.000000
vt 0.333958 0.715112 0.000000
vt 0.381280 0.754132 0.000000
vt 0.381280 0.762434 0.000000
vt 0.714238 0.588484 0.000000
vt 0.675218 0.588484 0.000000
vt 0.669348 0.582613 0.000000
vt 0.714238 0.580181 0.000000
vt 0.675218 0.627503 0.000000
vt 0.666916 0.627503 0.000000
vt 0.477672 0.723414 0.000000
vt 0.438652 0.723414 0.000000
vt 0.432781 0.717544 0.000000
vt 0.477672 0.715112 0.000000
vt 0.438652 0.762434 0.000000
vt 0.430350 0.762434 0.000000
# 312 texture coords

g Box002
s 2
f -104/-312/-86 -103/-311/-86 -102/-310/-86 -101/-309/-86 
s 4
f -100/-308/-85 -99/-307/-85 -98/-306/-85 -97/-305/-85 
s 8
f -96/-304/-84 -95/-303/-84 -94/-302/-84 -93/-301/-84 
s 16
f -92/-300/-83 -91/-299/-83 -90/-298/-83 -89/-297/-83 
s 32
f -88/-296/-82 -87/-295/-82 -86/-294/-82 -85/-293/-82 
s 64
f -84/-292/-81 -83/-291/-81 -82/-290/-81 -81/-289/-81 
s 2
f -80/-288/-86 -79/-287/-86 -103/-311/-86 -104/-312/-86 
f -78/-286/-86 -77/-285/-86 -101/-309/-86 -102/-310/-86 
s 4
f -76/-284/-85 -75/-283/-85 -99/-307/-85 -100/-308/-85 
f -74/-282/-85 -73/-281/-85 -97/-305/-85 -98/-306/-85 
s 16
f -72/-280/-83 -71/-279/-83 -91/-299/-83 -92/-300/-83 
f -70/-278/-83 -69/-277/-83 -89/-297/-83 -90/-298/-83 
s 64
f -68/-276/-81 -67/-275/-81 -83/-291/-81 -84/-292/-81 
f -66/-274/-81 -65/-273/-81 -81/-289/-81 -82/-290/-81 
s 8
f -73/-272/-84 -74/-271/-84 -95/-303/-84 -96/-304/-84 
f -77/-270/-84 -78/-269/-84 -93/-301/-84 -94/-302/-84 
s 16
f -91/-299/-83 -64/-268/-83 -63/-267/-83 -90/-298/-83 
f -89/-297/-83 -62/-266/-83 -61/-265/-83 -92/-300/-83 
s 32
f -75/-264/-82 -76/-263/-82 -87/-295/-82 -88/-296/-82 
f -79/-262/-82 -80/-261/-82 -85/-293/-82 -86/-294/-82 
s 64
f -83/-291/-81 -60/-260/-81 -59/-259/-81 -82/-290/-81 
f -81/-289/-81 -58/-258/-81 -57/-257/-81 -84/-292/-81 
s 16
f -56/-256/-80 -55/-255/-79 -54/-254/-78 -53/-253/-79 
f -52/-252/-77 -51/-251/-76 -50/-250/-75 -49/-249/-76 
f -48/-248/-74 -47/-247/-73 -46/-246/-72 -45/-245/-73 
f -44/-244/-71 -43/-243/-70 -42/-242/-69 -41/-241/-70 
s 64
f -40/-240/-68 -39/-239/-67 -38/-238/-66 -37/-237/-67 
f -36/-236/-65 -35/-235/-64 -34/-234/-63 -33/-233/-64 
f -32/-232/-62 -31/-231/-61 -30/-230/-60 -29/-229/-61 
f -28/-228/-59 -27/-227/-58 -26/-226/-57 -25/-225/-58 
s 2
f -103/-311/-86 -61/-224/-86 -62/-223/-86 -102/-310/-86 
f -101/-309/-86 -57/-222/-86 -58/-221/-86 -104/-312/-86 
s 4
f -99/-307/-85 -59/-220/-85 -60/-219/-85 -98/-306/-85 
f -97/-305/-85 -63/-218/-85 -64/-217/-85 -100/-308/-85 
s 8
f -95/-303/-84 -67/-216/-84 -68/-215/-84 -94/-302/-84 
f -93/-301/-84 -69/-214/-84 -70/-213/-84 -96/-304/-84 
s 32
f -87/-295/-82 -71/-212/-82 -72/-211/-82 -86/-294/-82 
f -85/-293/-82 -65/-210/-82 -66/-209/-82 -88/-296/-82 
s 2
f -24/-208/-56 -50/-207/-55 -51/-206/-54 -23/-205/-55 
f -22/-204/-53 -30/-203/-52 -31/-202/-51 -21/-201/-52 
f -20/-200/-50 -34/-199/-49 -35/-198/-48 -19/-197/-49 
f -18/-196/-47 -46/-195/-46 -47/-194/-45 -17/-193/-46 
s 4
f -16/-192/-44 -26/-191/-43 -27/-190/-42 -15/-189/-43 
f -14/-188/-41 -54/-187/-40 -55/-186/-39 -13/-185/-40 
f -12/-184/-38 -42/-183/-37 -43/-182/-36 -11/-181/-37 
f -10/-180/-35 -38/-179/-34 -39/-178/-33 -9/-177/-34 
s 8
f -9/-176/-32 -39/-175/-31 -40/-174/-30 -8/-173/-31 
f -7/-172/-29 -41/-171/-28 -42/-170/-27 -12/-169/-28 
f -17/-168/-26 -47/-167/-25 -48/-166/-24 -6/-165/-25 
f -5/-164/-23 -33/-163/-22 -34/-162/-21 -20/-161/-22 
s 32
f -13/-160/-20 -55/-159/-19 -56/-158/-18 -4/-157/-19 
f -3/-156/-17 -25/-155/-16 -26/-154/-15 -16/-153/-16 
f -21/-152/-14 -31/-151/-13 -32/-150/-12 -2/-149/-13 
f -1/-148/-11 -49/-147/-10 -50/-146/-9 -24/-145/-10 
s off
f -100/-144/-84 -64/-143/-84 -54/-142/-84 -14/-141/-84 
f -64/-143/-84 -91/-140/-84 -53/-139/-84 -54/-142/-84 
f -91/-138/-86 -71/-137/-86 -56/-136/-86 -53/-135/-86 
f -71/-137/-86 -87/-134/-86 -4/-133/-86 -56/-136/-86 
f -87/-132/-8 -76/-131/-8 -13/-130/-8 -4/-129/-8 
f -76/-131/-81 -100/-128/-81 -14/-127/-81 -13/-130/-81 
f -92/-126/-84 -61/-125/-84 -51/-124/-84 -52/-123/-84 
f -61/-125/-84 -103/-122/-84 -23/-121/-84 -51/-124/-84 
f -103/-120/-81 -79/-119/-81 -24/-118/-81 -23/-117/-81 
f -79/-119/-81 -86/-116/-81 -1/-115/-81 -24/-118/-81 
f -86/-114/-85 -72/-113/-85 -49/-112/-85 -1/-111/-85 
f -72/-113/-85 -92/-110/-85 -52/-109/-85 -49/-112/-85 
f -102/-108/-82 -62/-107/-82 -46/-106/-82 -18/-105/-82 
f -62/-107/-82 -89/-104/-82 -45/-103/-82 -46/-106/-82 
f -89/-102/-7 -69/-101/-7 -48/-100/-7 -45/-99/-7 
f -69/-101/-85 -93/-98/-85 -6/-97/-85 -48/-100/-85 
f -93/-96/-6 -78/-95/-6 -17/-94/-6 -6/-93/-6 
f -78/-95/-81 -102/-92/-81 -18/-91/-81 -17/-94/-81 
f -90/-90/-82 -63/-89/-82 -43/-88/-82 -44/-87/-82 
f -63/-89/-82 -97/-86/-82 -11/-85/-82 -43/-88/-82 
f -97/-84/-81 -73/-83/-81 -12/-82/-81 -11/-81/-81 
f -73/-83/-5 -96/-80/-5 -7/-79/-5 -12/-82/-5 
f -96/-78/-86 -70/-77/-86 -41/-76/-86 -7/-75/-86 
f -70/-77/-86 -90/-74/-86 -44/-73/-86 -41/-76/-86 
f -98/-72/-82 -60/-71/-82 -38/-70/-82 -10/-69/-82 
f -60/-71/-82 -83/-68/-82 -37/-67/-82 -38/-70/-82 
f -83/-66/-86 -67/-65/-86 -40/-64/-86 -37/-63/-86 
f -67/-65/-86 -95/-62/-86 -8/-61/-86 -40/-64/-86 
f -95/-60/-83 -74/-59/-83 -9/-58/-83 -8/-57/-83 
f -74/-59/-83 -98/-56/-83 -10/-55/-83 -9/-58/-83 
f -84/-54/-82 -57/-53/-82 -35/-52/-82 -36/-51/-82 
f -57/-53/-82 -101/-50/-82 -19/-49/-82 -35/-52/-82 
f -101/-48/-83 -77/-47/-83 -20/-46/-83 -19/-45/-83 
f -77/-47/-4 -94/-44/-4 -5/-43/-4 -20/-46/-4 
f -94/-42/-85 -68/-41/-85 -33/-40/-85 -5/-39/-85 
f -68/-41/-3 -84/-38/-3 -36/-37/-3 -33/-40/-3 
f -104/-36/-84 -58/-35/-84 -30/-34/-84 -22/-33/-84 
f -58/-35/-84 -81/-32/-84 -29/-31/-84 -30/-34/-84 
f -81/-30/-85 -65/-29/-85 -32/-28/-85 -29/-27/-85 
f -65/-29/-85 -85/-26/-85 -2/-25/-85 -32/-28/-85 
f -85/-24/-2 -80/-23/-2 -21/-22/-2 -2/-21/-2 
f -80/-23/-83 -104/-20/-83 -22/-19/-83 -21/-22/-83 
f -82/-18/-84 -59/-17/-84 -27/-16/-84 -28/-15/-84 
f -59/-17/-84 -99/-14/-84 -15/-13/-84 -27/-16/-84 
f -99/-12/-83 -75/-11/-83 -16/-10/-83 -15/-9/-83 
f -75/-11/-1 -88/-8/-1 -3/-7/-1 -16/-10/-1 
f -88/-6/-86 -66/-5/-86 -25/-4/-86 -3/-3/-86 
f -66/-5/-86 -82/-2/-86 -28/-1/-86 -25/-4/-86 
# 102 polygons

